<svg width="18" height="22" viewBox="0 0 18 22" fill="none" xmlns="http://www.w3.org/2000/svg">
<path d="M15.1875 4H2.8125C1.56986 4 0.5625 5.00736 0.5625 6.25V15.25C0.5625 16.4926 1.56986 17.5 2.8125 17.5H15.1875C16.4301 17.5 17.4375 16.4926 17.4375 15.25V6.25C17.4375 5.00736 16.4301 4 15.1875 4Z" fill="white"/>
<path d="M17.4375 9.625H10.125V4H7.875V9.625H0.5625V11.875H7.875V17.5H10.125V11.875H17.4375V9.625Z" fill="#BE2A2A"/>
<path opacity="0.15" d="M15.1875 4H2.8125C1.56994 4 0.5625 5.00744 0.5625 6.25V15.25C0.5625 16.4926 1.56994 17.5 2.8125 17.5H15.1875C16.4301 17.5 17.4375 16.4926 17.4375 15.25V6.25C17.4375 5.00744 16.4301 4 15.1875 4ZM16.875 15.25C16.875 16.1804 16.1179 16.9375 15.1875 16.9375H2.8125C1.88212 16.9375 1.125 16.1804 1.125 15.25V6.25C1.125 5.31962 1.88212 4.5625 2.8125 4.5625H15.1875C16.1179 4.5625 16.875 5.31962 16.875 6.25V15.25Z" fill="black"/>
<path opacity="0.2" d="M15.1875 4.5625H2.8125C1.88044 4.5625 1.125 5.31794 1.125 6.25V6.8125C1.125 5.88044 1.88044 5.125 2.8125 5.125H15.1875C16.1196 5.125 16.875 5.88044 16.875 6.8125V6.25C16.875 5.31794 16.1196 4.5625 15.1875 4.5625Z" fill="white"/>
</svg>
