<?xml version="1.0" encoding="UTF-8"?>
<svg id="Guides" xmlns="http://www.w3.org/2000/svg" viewBox="0 0 795.79 795.77">
  <defs>
    <style>
      .cls-1 {
        fill: #2191e9;
      }

      .cls-2 {
        fill: #0c1f4e;
      }
    </style>
  </defs>
  <path d="M401.53,795.76c52.58-.46,104.96-11.31,153.86-32.39,141.39-61,240.4-201.68,240.4-365.48,0-29.48-3.21-58.21-9.29-85.87h-498.82c14.13,96.76,95.79,171.76,208.9,171.76h109.75c-3.37,8.17-7.21,16.1-11.49,23.76-27.03,48.47-71.44,85.57-123.55,103.43-53.68,18.5-112.37,16.02-164.3-6.87-32.84-14.48-62.1-36.76-85.1-65.5-22.61-28.26-37.58-60.6-44.85-95.66-1.95,7.53-3.68,15.09-5.18,22.69-9.52,48.19-10.29,99.46.98,147.43,26.67,113.56,88.07,183.86,228.69,182.69h0Z"/>
  <path class="cls-1" d="M397.91,0c8.27,0,16.49.26,24.63.76h336.78c-34.62,93.12-116.88,171.76-247.01,171.76h-113.55c-.29,0-.58,0-.85,0-65.31,0-126.93,28.04-169.87,77.25-53.15,57.98-88.01,131.59-102.84,206.65-11.24,56.9-11.05,114.79,1.34,167.53,8.56,36.42,22.94,70.44,43.42,100.07C58.1,645.67-1.7,519.8.04,392.05,1.91,254.47,75.59,126.42,194.94,55.64,255.27,19.86,325.11,0,397.91,0h0Z"/>
</svg>