<?xml version="1.0" encoding="utf-8"?>
<!-- Generator: Adobe Illustrator 27.5.0, SVG Export Plug-In . SVG Version: 6.00 Build 0)  -->
<svg version="1.1" id="_x2DC_รรฐ_x5F_1" xmlns="http://www.w3.org/2000/svg" xmlns:xlink="http://www.w3.org/1999/xlink" x="0px"
	 y="0px" viewBox="0 0 3000 3000" style="enable-background:new 0 0 3000 3000;" xml:space="preserve">
<rect style="fill:#FFFFFF;" width="3000" height="3000"/>
<g>
	<path style="fill:#ECECEC;" d="M2716.636,1499.993c0,289.359-101.026,555.109-269.713,763.941
		c-15.963,19.772-32.54,39.043-49.703,57.755c-222.409,242.754-542.034,394.948-897.228,394.948
		c-361.054,0-685.367-157.273-908.181-407.059c-12.335-13.8-24.335-27.894-36.029-42.266
		c-170.32-209.334-272.419-476.41-272.419-767.318c0-671.93,544.699-1216.629,1216.629-1216.629S2716.636,828.063,2716.636,1499.993
		z"/>
	<path style="fill:#9C9C9B;" d="M2397.22,2321.689c-222.409,242.754-542.034,394.948-897.228,394.948
		c-361.054,0-685.367-157.273-908.181-407.059c147.338-98.723,346.458-175.343,482.522-178.832l117.477-130.342l10.73-204.493
		c0,0-124.454-113.709-141.617-278.922c0,0-115.858,8.582-137.319-173.794c-21.447-182.376,25.759-165.213,25.759-165.213
		s-32.191-81.532-25.759-304.667c2.735-94.481,7.005-202.288,64.913-281.74c69.95-95.974,190.427-118.872,302.002-118.607
		c149.152,0.363,298.318,0.614,447.47,0.921c49.996,0.112,100.453,0.265,149.249,11.107
		c289.904,64.466,207.8,486.623,154.217,688.702c0,0,41.54-2.149,48.657,64.369c7.13,66.504,0.698,214.553-125.891,278.922
		c0,0-40.773,180.227-158.78,281.071v191.613l102.993,137.319C1908.434,2126.991,2205.077,2189.253,2397.22,2321.689z"/>
</g>
</svg>
