<svg width="18" height="18" viewBox="0 0 18 18" fill="none" xmlns="http://www.w3.org/2000/svg">
<path d="M0.5625 5.625H17.4375V12.375H0.5625V5.625Z" fill="#F1C142"/>
<path d="M2.8125 2.25H15.1875C16.4295 2.25 17.4375 3.258 17.4375 4.5V6.1875H0.5625V4.5C0.5625 3.258 1.5705 2.25 2.8125 2.25Z" fill="#A0251E"/>
<path d="M15.1875 15.75L2.8125 15.75C1.5705 15.75 0.5625 14.742 0.5625 13.5V11.8125L17.4375 11.8125V13.5C17.4375 14.742 16.4295 15.75 15.1875 15.75Z" fill="#A0251E"/>
<path opacity="0.15" d="M15.1875 2.25H2.8125C1.56994 2.25 0.5625 3.25744 0.5625 4.5V13.5C0.5625 14.7426 1.56994 15.75 2.8125 15.75H15.1875C16.4301 15.75 17.4375 14.7426 17.4375 13.5V4.5C17.4375 3.25744 16.4301 2.25 15.1875 2.25ZM16.875 13.5C16.875 14.4304 16.1179 15.1875 15.1875 15.1875H2.8125C1.88212 15.1875 1.125 14.4304 1.125 13.5V4.5C1.125 3.56962 1.88212 2.8125 2.8125 2.8125H15.1875C16.1179 2.8125 16.875 3.56962 16.875 4.5V13.5Z" fill="black"/>
<path opacity="0.2" d="M15.1875 2.8125H2.8125C1.88044 2.8125 1.125 3.56794 1.125 4.5V5.0625C1.125 4.13044 1.88044 3.375 2.8125 3.375H15.1875C16.1196 3.375 16.875 4.13044 16.875 5.0625V4.5C16.875 3.56794 16.1196 2.8125 15.1875 2.8125Z" fill="white"/>
<path d="M7.09533 7.36355C7.13246 7.34611 7.12627 7.2848 7.08633 7.27523C7.11839 7.2488 7.09758 7.19086 7.05539 7.19198C7.07789 7.15992 7.04865 7.11098 7.00927 7.11886C7.02108 7.08398 6.98564 7.04742 6.95077 7.0598C6.95639 7.02155 6.91083 6.99286 6.87933 7.01423C6.88158 6.97598 6.83377 6.95123 6.80396 6.97542C6.79833 6.93548 6.74208 6.92198 6.71958 6.95573C6.71171 6.91748 6.65714 6.9068 6.63577 6.93998C6.62058 6.90905 6.57164 6.90792 6.55477 6.93773C6.53789 6.9113 6.49458 6.91242 6.47827 6.93886C6.46814 6.92311 6.44621 6.91411 6.42764 6.91973C6.43271 6.88317 6.39052 6.85505 6.35902 6.87361C6.36014 6.83423 6.31008 6.81117 6.28139 6.83761C6.27408 6.80161 6.22346 6.78867 6.20039 6.81736C6.18914 6.78192 6.13627 6.77517 6.11714 6.8078C6.09689 6.7763 6.04458 6.78417 6.03446 6.82017C6.01139 6.78923 5.95852 6.80273 5.95233 6.84042C5.94614 6.83592 5.93939 6.83255 5.93152 6.83142C5.93489 6.82692 5.93714 6.82242 5.93996 6.81736H5.94108C5.97371 6.75717 5.94333 6.67336 5.88146 6.64973V6.59461H5.93714V6.50798H5.88146V6.45117H5.79652V6.50798H5.74083V6.59461H5.79652V6.64861C5.73296 6.67111 5.70146 6.75605 5.73464 6.8168H5.73577C5.73802 6.8213 5.74083 6.82636 5.74365 6.8303C5.73521 6.83142 5.72733 6.8348 5.72114 6.83986C5.71496 6.80217 5.66152 6.78867 5.63902 6.81961C5.62889 6.78361 5.57658 6.77573 5.55633 6.80723C5.53721 6.77517 5.48433 6.78136 5.47308 6.8168C5.45002 6.78755 5.3994 6.80105 5.39208 6.83705C5.3634 6.81061 5.31389 6.83367 5.31446 6.87305C5.28296 6.85448 5.24077 6.88261 5.24583 6.91917C5.22671 6.91355 5.20533 6.92255 5.19464 6.9383C5.17833 6.91186 5.13502 6.91073 5.11814 6.93717C5.10127 6.9068 5.05233 6.90848 5.03771 6.93942C5.01689 6.90623 4.96177 6.91692 4.95389 6.95517C4.93196 6.92142 4.87514 6.93436 4.86952 6.97486C4.83971 6.95067 4.79189 6.97486 4.79414 7.01367C4.76264 6.9923 4.71708 7.02098 4.72271 7.05923C4.68783 7.04742 4.65239 7.08398 4.66421 7.1183C4.63608 7.11323 4.61021 7.13686 4.61021 7.16555C4.61021 7.17511 4.61302 7.18411 4.61808 7.19198C4.57589 7.19086 4.55564 7.2488 4.58714 7.27523C4.54721 7.2848 4.54102 7.34555 4.57814 7.36355C4.54383 7.38323 4.55171 7.44117 4.59052 7.45017C4.58321 7.45861 4.57871 7.4693 4.57871 7.48111C4.57871 7.50473 4.59558 7.52442 4.61752 7.52836C4.60458 7.55536 4.62258 7.59023 4.65127 7.59473C4.64396 7.61161 4.64452 7.6358 4.64452 7.65436C4.69514 7.64367 4.75702 7.65773 4.77896 7.71623C4.77052 7.75448 4.81552 7.80398 4.85658 7.79836C4.89033 7.84617 4.93139 7.89117 4.99777 7.90917C4.98596 7.96148 5.03377 7.96148 5.06696 7.97555C5.05965 7.98455 5.04277 8.01098 5.03602 8.02111C5.04952 8.02842 5.08496 8.04417 5.09958 8.0498C5.10239 8.06048 5.10183 8.06555 5.10183 8.06723C5.15302 8.34905 6.52721 8.34961 6.57333 8.06667V8.06555C6.57333 8.06555 6.57558 8.06723 6.57558 8.0678C6.57558 8.06611 6.57502 8.06161 6.57783 8.05036L6.64421 8.02673L6.60933 7.97611C6.64083 7.96036 6.69089 7.96205 6.67852 7.90917C6.74546 7.89117 6.78708 7.84617 6.82083 7.7978C6.86189 7.80342 6.90689 7.75392 6.89846 7.71567C6.92039 7.65717 6.98283 7.64311 7.03289 7.6538C7.03289 7.63411 7.03402 7.60992 7.02558 7.59248C7.05033 7.58461 7.06496 7.55255 7.05314 7.5278C7.08802 7.52273 7.10433 7.47548 7.08014 7.44961C7.11896 7.44061 7.12683 7.38211 7.09252 7.36298L7.09533 7.36355ZM6.92883 7.29942C6.92883 7.32698 6.92208 7.35455 6.90971 7.37873C6.79833 7.30167 6.64139 7.24486 6.51933 7.25836C6.51821 7.2533 6.51596 7.2488 6.51315 7.24486C6.51315 7.24486 6.51315 7.2443 6.51315 7.24373C6.54915 7.23192 6.55477 7.17623 6.52158 7.15767C6.54858 7.13967 6.54689 7.09411 6.51877 7.07836C6.70327 7.05642 6.92883 7.12898 6.92883 7.29942ZM6.39108 7.14473C6.39108 7.18017 6.37983 7.21448 6.36071 7.24317C6.20658 7.20998 6.12896 7.14811 5.95739 7.13911C5.95346 7.09298 5.95458 7.04292 5.95121 6.99623C6.08958 6.88936 6.40627 6.96136 6.39108 7.14473ZM5.72114 7.05248C5.72002 7.08061 5.71946 7.10986 5.71721 7.13742C5.54733 7.14473 5.46464 7.20605 5.31277 7.24148C5.16652 7.01311 5.54621 6.86123 5.72339 6.99623C5.72227 7.0148 5.72058 7.03336 5.72114 7.05248ZM5.13277 7.1183C5.13277 7.13405 5.14064 7.14811 5.15189 7.15711C5.11927 7.17567 5.12433 7.23136 5.16033 7.24261C5.16033 7.24261 5.16033 7.24317 5.16033 7.24373C5.15752 7.24767 5.15583 7.25217 5.15414 7.25723C5.03096 7.24373 4.87571 7.29492 4.76152 7.37311C4.67433 7.16105 4.94321 7.04911 5.15414 7.0778C5.14121 7.08623 5.13221 7.10086 5.13221 7.1183H5.13277ZM5.10577 8.06498V8.06611C5.10577 8.06611 5.10464 8.06611 5.10408 8.06723C5.10408 8.06667 5.10521 8.06498 5.10577 8.06498Z" fill="#9B8028"/>
<path d="M7.9499 9.48124C8.10458 9.11561 8.06296 9.19548 7.77046 9.03855V8.54748C7.85427 8.4918 7.71758 8.47942 7.79858 8.4153H7.83908V8.22461H7.28221V8.4153H7.3244C7.4009 8.47267 7.27321 8.49742 7.35252 8.54748V8.97498C7.05777 8.97105 6.91883 9.01211 6.97058 9.29898H6.99252L7.00152 9.31923C7.08027 9.2838 7.21077 9.25905 7.35252 9.2523V9.3783C7.13652 9.39461 7.11627 9.7203 7.35252 9.8283V10.5545C7.32271 10.564 7.31371 10.6045 7.33902 10.6237C7.34296 10.6602 7.3064 10.6754 7.27546 10.6704C7.27546 10.685 7.27546 10.8037 7.27546 10.8217C7.25071 10.8352 7.2119 10.8385 7.17983 10.8374V10.8982V10.9584V11.0185V11.0793V11.1839C7.43802 11.1457 7.68327 11.1457 7.9409 11.1839V10.8374C7.90883 10.8385 7.87115 10.8352 7.84527 10.8217C7.84527 10.8031 7.84527 10.6861 7.84527 10.6709C7.8149 10.6754 7.7789 10.6614 7.78171 10.6254C7.80871 10.6068 7.80083 10.5646 7.7699 10.5545V10.0302C7.79127 10.0398 7.81096 10.0499 7.82896 10.06C7.7699 10.127 7.77721 10.2434 7.8464 10.3014L7.87846 10.2715C8.00333 10.0865 8.10121 9.85361 7.7699 9.76755V9.57067C7.86946 9.55998 7.93246 9.52905 7.94933 9.4818L7.9499 9.48124Z" fill="#9B8028"/>
<path d="M4.70244 9.03191C4.61638 8.99703 4.48307 8.97678 4.33513 8.97453V8.54703C4.388 8.52397 4.35425 8.48234 4.32782 8.45759C4.33907 8.43622 4.37957 8.42553 4.35932 8.39291H4.3835V8.24609H3.8705V8.39291H3.89244C3.87163 8.42609 3.91438 8.43678 3.9245 8.45759C3.89807 8.48122 3.86375 8.52397 3.91663 8.54703V9.03809C3.55438 9.11291 3.57294 9.45884 3.91663 9.56966V9.76653C3.58475 9.85316 3.68319 10.0855 3.80807 10.2705L3.84013 10.3003C3.90932 10.2424 3.91663 10.126 3.85757 10.059C3.87557 10.0489 3.89525 10.0388 3.91663 10.0292V10.5535C3.88569 10.5636 3.87782 10.6058 3.90482 10.6243C3.90763 10.6603 3.87163 10.6744 3.84125 10.6699C3.84125 10.6845 3.84125 10.8027 3.84125 10.8207C3.81594 10.8342 3.77769 10.8381 3.74563 10.8364V11.062V11.1829C4.00382 11.1447 4.24907 11.1447 4.50613 11.1829V11.0783V11.0175V10.9573V10.8972V10.8364C4.47463 10.8375 4.43638 10.8342 4.41107 10.8207C4.41107 10.8021 4.41107 10.6851 4.41107 10.6693C4.38013 10.6738 4.34413 10.6592 4.3475 10.6227C4.37282 10.6035 4.36438 10.5625 4.334 10.5529V9.82728C4.57082 9.71928 4.54944 9.39303 4.334 9.37728V9.25128C4.65744 9.27097 4.78175 9.42791 4.70132 9.03078L4.70244 9.03191Z" fill="#9B8028"/>
<path d="M7.04861 8.17578H4.64111L4.6428 9.62253V10.4578C4.6428 10.7008 4.76993 10.9202 4.97524 11.031C5.2413 11.1728 5.55124 11.251 5.84824 11.251C6.14524 11.251 6.44674 11.175 6.71674 11.031C6.92149 10.9202 7.04918 10.7008 7.04918 10.4578L7.04861 8.17578Z" fill="#A0251E"/>
</svg>
