<svg width="100%" height="100%" viewBox="0 0 2001 251" fill="none" xmlns="http://www.w3.org/2000/svg">
<path d="M1897.63 250.624C1878.28 250.624 1859.73 248.09 1841.99 243.021C1824.25 237.721 1809.96 230.924 1799.13 222.629L1818.14 180.464C1828.51 187.838 1840.72 193.943 1854.78 198.782C1869.06 203.39 1883.46 205.694 1897.98 205.694C1909.04 205.694 1917.91 204.657 1924.59 202.584C1931.5 200.28 1936.57 197.169 1939.8 193.252C1943.02 189.335 1944.64 184.842 1944.64 179.773C1944.64 173.322 1942.1 168.253 1937.03 164.566C1931.96 160.649 1925.28 157.539 1916.99 155.235C1908.69 152.7 1899.48 150.396 1889.34 148.322C1879.43 146.018 1869.41 143.253 1859.27 140.028C1849.36 136.802 1840.26 132.655 1831.97 127.586C1823.67 122.517 1816.87 115.835 1811.57 107.54C1806.51 99.2453 1803.97 88.6465 1803.97 75.7436C1803.97 61.9191 1807.66 49.3618 1815.03 38.0718C1822.63 26.5513 1833.92 17.4502 1848.9 10.7683C1864.11 3.85603 1883.12 0.399902 1905.93 0.399902C1921.13 0.399902 1936.11 2.24317 1950.86 5.92971C1965.6 9.38584 1978.62 14.6852 1989.91 21.8279L1972.63 64.3384C1961.34 57.8869 1950.05 53.1635 1938.76 50.1682C1927.47 46.9425 1916.41 45.3296 1905.58 45.3296C1894.75 45.3296 1885.88 46.5969 1878.97 49.1314C1872.06 51.6659 1867.1 55.0068 1864.11 59.1542C1861.11 63.0711 1859.62 67.6793 1859.62 72.9787C1859.62 79.1998 1862.15 84.2687 1867.22 88.1857C1872.29 91.8722 1878.97 94.8676 1887.26 97.1717C1895.56 99.4757 1904.66 101.78 1914.57 104.084C1924.71 106.388 1934.73 109.038 1944.64 112.033C1954.77 115.028 1963.99 119.061 1972.29 124.13C1980.58 129.199 1987.26 135.88 1992.33 144.175C1997.63 152.47 2000.28 162.953 2000.28 175.626C2000.28 189.22 1996.48 201.662 1988.87 212.952C1981.27 224.242 1969.87 233.343 1954.66 240.256C1939.68 247.168 1920.67 250.624 1897.63 250.624Z" fill="#2191E9"/>
<path d="M1644.04 250.624C1624.92 250.624 1607.18 247.513 1590.82 241.292C1574.69 235.071 1560.64 226.316 1548.65 215.026C1536.9 203.736 1527.69 190.487 1521.01 175.28C1514.55 160.073 1511.33 143.484 1511.33 125.512C1511.33 107.54 1514.55 90.9506 1521.01 75.7436C1527.69 60.5366 1537.02 47.2881 1549 35.9981C1560.98 24.708 1575.04 15.9525 1591.16 9.73145C1607.29 3.51042 1624.8 0.399902 1643.7 0.399902C1662.82 0.399902 1680.33 3.51042 1696.23 9.73145C1712.36 15.9525 1726.3 24.708 1738.05 35.9981C1750.03 47.2881 1759.36 60.5366 1766.05 75.7436C1772.73 90.7202 1776.07 107.31 1776.07 125.512C1776.07 143.484 1772.73 160.188 1766.05 175.626C1759.36 190.833 1750.03 204.081 1738.05 215.371C1726.3 226.431 1712.36 235.071 1696.23 241.292C1680.33 247.513 1662.94 250.624 1644.04 250.624ZM1643.7 202.929C1654.53 202.929 1664.43 201.086 1673.42 197.4C1682.64 193.713 1690.7 188.414 1697.61 181.501C1704.53 174.589 1709.83 166.41 1713.51 156.963C1717.43 147.516 1719.39 137.032 1719.39 125.512C1719.39 113.992 1717.43 103.508 1713.51 94.0611C1709.83 84.6144 1704.53 76.4348 1697.61 69.5226C1690.93 62.6103 1682.98 57.3109 1673.77 53.6244C1664.55 49.9378 1654.53 48.0946 1643.7 48.0946C1632.87 48.0946 1622.85 49.9378 1613.63 53.6244C1604.64 57.3109 1596.69 62.6103 1589.78 69.5226C1582.87 76.4348 1577.46 84.6144 1573.54 94.0611C1569.85 103.508 1568.01 113.992 1568.01 125.512C1568.01 136.802 1569.85 147.286 1573.54 156.963C1577.46 166.41 1582.75 174.589 1589.44 181.501C1596.35 188.414 1604.41 193.713 1613.63 197.4C1622.85 201.086 1632.87 202.929 1643.7 202.929Z" fill="#2191E9"/>
<path d="M1273.4 246.478V4.54834H1378.12C1399.78 4.54834 1418.44 8.11968 1434.11 15.2624C1449.78 22.1746 1461.87 32.1974 1470.4 45.3307C1478.92 58.464 1483.19 74.1318 1483.19 92.3341C1483.19 110.306 1478.92 125.859 1470.4 138.992C1461.87 152.125 1449.78 162.263 1434.11 169.406C1418.44 176.318 1399.78 179.774 1378.12 179.774H1304.5L1329.39 154.545V246.478H1273.4ZM1329.39 160.766L1304.5 134.153H1375.01C1392.29 134.153 1405.19 130.467 1413.72 123.094C1422.24 115.721 1426.51 105.467 1426.51 92.3341C1426.51 78.9704 1422.24 68.602 1413.72 61.2289C1405.19 53.8559 1392.29 50.1693 1375.01 50.1693H1304.5L1329.39 23.5571V160.766Z" fill="#2191E9"/>
<path d="M1099.3 250.624C1080.17 250.624 1062.43 247.513 1046.07 241.292C1029.94 235.071 1015.89 226.316 1003.91 215.026C992.157 203.736 982.941 190.487 976.259 175.28C969.808 160.073 966.582 143.484 966.582 125.512C966.582 107.54 969.808 90.9506 976.259 75.7436C982.941 60.5366 992.273 47.2881 1004.25 35.9981C1016.24 24.708 1030.29 15.9525 1046.42 9.73145C1062.55 3.51042 1080.06 0.399902 1098.95 0.399902C1118.08 0.399902 1135.59 3.51042 1151.49 9.73145C1167.61 15.9525 1181.55 24.708 1193.3 35.9981C1205.29 47.2881 1214.62 60.5366 1221.3 75.7436C1227.98 90.7202 1231.32 107.31 1231.32 125.512C1231.32 143.484 1227.98 160.188 1221.3 175.626C1214.62 190.833 1205.29 204.081 1193.3 215.371C1181.55 226.431 1167.61 235.071 1151.49 241.292C1135.59 247.513 1118.19 250.624 1099.3 250.624ZM1098.95 202.929C1109.78 202.929 1119.69 201.086 1128.67 197.4C1137.89 193.713 1145.96 188.414 1152.87 181.501C1159.78 174.589 1165.08 166.41 1168.77 156.963C1172.68 147.516 1174.64 137.032 1174.64 125.512C1174.64 113.992 1172.68 103.508 1168.77 94.0611C1165.08 84.6144 1159.78 76.4348 1152.87 69.5226C1146.19 62.6103 1138.24 57.3109 1129.02 53.6244C1119.8 49.9378 1109.78 48.0946 1098.95 48.0946C1088.12 48.0946 1078.1 49.9378 1068.88 53.6244C1059.9 57.3109 1051.95 62.6103 1045.04 69.5226C1038.12 76.4348 1032.71 84.6144 1028.79 94.0611C1025.11 103.508 1023.26 113.992 1023.26 125.512C1023.26 136.802 1025.11 147.286 1028.79 156.963C1032.71 166.41 1038.01 174.589 1044.69 181.501C1051.6 188.414 1059.67 193.713 1068.88 197.4C1078.1 201.086 1088.12 202.929 1098.95 202.929Z" />
<path d="M821.632 246.478V50.1693H744.215V4.54834H955.039V50.1693H877.622V246.478H821.632Z" />
<path d="M633.982 250.624C614.628 250.624 596.08 248.09 578.338 243.021C560.597 237.721 546.312 230.924 535.482 222.629L554.491 180.464C564.86 187.838 577.071 193.943 591.126 198.782C605.412 203.39 619.812 205.694 634.328 205.694C645.387 205.694 654.258 204.657 660.94 202.584C667.852 200.28 672.921 197.169 676.147 193.252C679.373 189.335 680.986 184.842 680.986 179.773C680.986 173.322 678.451 168.253 673.382 164.566C668.313 160.649 661.631 157.539 653.337 155.235C645.042 152.7 635.826 150.396 625.688 148.322C615.78 146.018 605.757 143.253 595.619 140.028C585.712 136.802 576.61 132.655 568.316 127.586C560.021 122.517 553.224 115.835 547.925 107.54C542.856 99.2453 540.321 88.6465 540.321 75.7436C540.321 61.9191 544.008 49.3618 551.381 38.0718C558.984 26.5513 570.274 17.4502 585.251 10.7683C600.458 3.85603 619.466 0.399902 642.277 0.399902C657.484 0.399902 672.461 2.24317 687.207 5.92971C701.953 9.38584 714.971 14.6852 726.261 21.8279L708.98 64.3384C697.69 57.8869 686.4 53.1635 675.11 50.1682C663.82 46.9425 652.761 45.3296 641.931 45.3296C631.102 45.3296 622.231 46.5969 615.319 49.1314C608.407 51.6659 603.453 55.0068 600.458 59.1542C597.462 63.0711 595.965 67.6793 595.965 72.9787C595.965 79.1998 598.499 84.2687 603.568 88.1857C608.637 91.8722 615.319 94.8676 623.614 97.1717C631.909 99.4757 641.01 101.78 650.917 104.084C661.055 106.388 671.078 109.038 680.986 112.033C691.124 115.028 700.34 119.061 708.635 124.13C716.929 129.199 723.611 135.88 728.68 144.175C733.98 152.47 736.629 162.953 736.629 175.626C736.629 189.22 732.828 201.662 725.224 212.952C717.621 224.242 706.215 233.343 691.008 240.256C676.032 247.168 657.023 250.624 633.982 250.624Z" />
<path d="M389.608 250.625C355.277 250.625 328.435 241.063 309.08 221.939C289.726 202.815 280.049 175.512 280.049 140.029V4.54834H336.038V137.955C336.038 160.996 340.762 177.585 350.208 187.723C359.655 197.861 372.904 202.93 389.954 202.93C407.004 202.93 420.253 197.861 429.699 187.723C439.146 177.585 443.87 160.996 443.87 137.955V4.54834H499.168V140.029C499.168 175.512 489.491 202.815 470.136 221.939C450.782 241.063 423.939 250.625 389.608 250.625Z" />
<path d="M132.304 250.624C113.18 250.624 95.5534 247.629 79.4248 241.638C63.5266 235.417 49.5868 226.661 37.6055 215.371C25.8547 204.081 16.6383 190.833 9.95647 175.626C3.50502 160.419 0.279297 143.714 0.279297 125.512C0.279297 107.31 3.50502 90.605 9.95647 75.398C16.6383 60.191 25.9699 46.9425 37.9512 35.6525C49.9324 24.3624 63.9874 15.7221 80.116 9.73145C96.2446 3.51042 113.986 0.399902 133.34 0.399902C154.768 0.399902 174.008 3.97124 191.058 11.1139C208.339 18.2566 222.854 28.625 234.605 42.2191L198.661 75.398C189.906 66.1816 180.344 59.3846 169.975 55.0068C159.607 50.3986 148.317 48.0946 136.105 48.0946C124.355 48.0946 113.64 49.9378 103.963 53.6244C94.2861 57.3109 85.8762 62.6103 78.7335 69.5226C71.8213 76.4348 66.4067 84.6144 62.4897 94.0611C58.8032 103.508 56.9599 113.992 56.9599 125.512C56.9599 136.802 58.8032 147.17 62.4897 156.617C66.4067 166.064 71.8213 174.359 78.7335 181.501C85.8762 188.414 94.1709 193.713 103.618 197.4C113.295 201.086 123.894 202.929 135.414 202.929C146.474 202.929 157.188 201.201 167.556 197.745C178.155 194.059 188.408 187.953 198.316 179.428L230.112 219.864C216.979 229.772 201.657 237.376 184.146 242.675C166.865 247.974 149.584 250.624 132.304 250.624ZM178.961 212.607V121.71H230.112V219.864L178.961 212.607Z" />
</svg>
