<?xml version="1.0" encoding="UTF-8"?>
<svg id="Layer_1" data-name="Layer 1" xmlns="http://www.w3.org/2000/svg" viewBox="0 0 1340.19 632.43">
  <defs>
    <style>
      .cls-1 {
        fill: #2191e9;
      }
    </style>
  </defs>
  <path class="cls-1" d="M1003.6.31c-34.49,0-67.34,4.1-98.05,11.89l78.43,49.29-14.53,86.56c10.72-2.08,21.94-3.16,33.57-3.16,92.62,0,162.4,74.94,162.4,172.75s-69.78,170.22-162.4,170.22-162.4-72.41-162.4-170.22c0-45.48,13.81-85.22,37.77-115.08l17.01-101.33-81.65-51.31c-26.45,15.8-50,35.06-70.12,57.29l-5.92,6.74-.13.15-50.26,57.27-16.63,18.94-218.82,249.21c-30.44,32.33-68.63,46.55-110.71,46.55-90.14,0-160.88-62.76-160.88-170.01s70.74-170.01,160.88-170.01c28.12,0,54.5,6.64,77.99,20.64l104.43-118.93C474.43,16.53,412.41,0,342.3,0,142.63,0,0,131.21,0,316.06s142.63,316.05,342.3,316.05c96.98,0,178.47-32.28,231.84-90.03,2.62-2.83,5.17-5.73,7.65-8.68l.14-.16s.08-.09.12-.14l99.98-113.58c42.53,128.63,165.19,212.91,321.57,212.91,195.11,0,336.59-131.21,336.59-316.06S1198.71.31,1003.6.31Z"/>
</svg>